<?xml version="1.0" encoding="UTF-8"?>
<svg height="16px" viewBox="0 0 16 16" width="16px" xmlns="http://www.w3.org/2000/svg">
    <path fill-rule="evenodd" d="M3.2,8 a4.8,4.8 0 1,0 9.6,0 a4.8,4.8 0 1,0 -9.6,0 Z M5.2,8 a2.8,2.8 0 1,0 5.6,0 a2.8,2.8 0 1,0 -5.6,0 Z M6.9,1.3 a1.1,1.1 0 1,0 2.2,0 a1.1,1.1 0 1,0 -2.2,0 Z M10.25,2.198 a1.1,1.1 0 1,0 2.2,0 a1.1,1.1 0 1,0 -2.2,0 Z M12.702,4.65 a1.1,1.1 0 1,0 2.2,0 a1.1,1.1 0 1,0 -2.2,0 Z M13.6,8 a1.1,1.1 0 1,0 2.2,0 a1.1,1.1 0 1,0 -2.2,0 Z M12.702,11.35 a1.1,1.1 0 1,0 2.2,0 a1.1,1.1 0 1,0 -2.2,0 Z M10.25,13.802 a1.1,1.1 0 1,0 2.2,0 a1.1,1.1 0 1,0 -2.2,0 Z M6.9,14.7 a1.1,1.1 0 1,0 2.2,0 a1.1,1.1 0 1,0 -2.2,0 Z M3.55,13.802 a1.1,1.1 0 1,0 2.2,0 a1.1,1.1 0 1,0 -2.2,0 Z M1.098,11.35 a1.1,1.1 0 1,0 2.2,0 a1.1,1.1 0 1,0 -2.2,0 Z M0.2,8 a1.1,1.1 0 1,0 2.2,0 a1.1,1.1 0 1,0 -2.2,0 Z M1.098,4.65 a1.1,1.1 0 1,0 2.2,0 a1.1,1.1 0 1,0 -2.2,0 Z M3.55,2.198 a1.1,1.1 0 1,0 2.2,0 a1.1,1.1 0 1,0 -2.2,0 Z"/>
</svg>
